/* XPM */
static char * east_xpm[] = {
"64 64 6 1",
" 	c #FFFFFF",
".	c #E2C350",
"+	c #DFBD12",
"@	c #EBD79F",
"#	c #F9F4E7",
"$	c #E8D291",
"                                                                ",
"                                                                ",
"                                                                ",
"                                                                ",
"                                                                ",
"                                                                ",
"                                                                ",
"                                                                ",
"                                                                ",
"                   .+++++++++++++++++++++++++++@                ",
"                   .+++++++++++++++++++++++++++@                ",
"                   .+++++++++++++++++++++++++++@                ",
"                   .+++++++++++++++++++++++++++@                ",
"                   .+++++++++++++++++++++++++++@                ",
"                   .+++++#                                      ",
"                   .+++++#                                      ",
"                   .+++++#                                      ",
"                   .+++++#                                      ",
"                   .+++++#                                      ",
"                   .+++++#                                      ",
"                   .+++++#                                      ",
"                   .+++++#                                      ",
"                   .+++++#                                      ",
"                   .+++++#                                      ",
"                   .+++++#                                      ",
"                   .+++++#                                      ",
"                   .+++++#                                      ",
"                   .++++++++++++++++++++++++++$                 ",
"                   .++++++++++++++++++++++++++$                 ",
"                   .++++++++++++++++++++++++++$                 ",
"                   .++++++++++++++++++++++++++$                 ",
"                   .++++++++++++++++++++++++++$                 ",
"                   .+++++#                                      ",
"                   .+++++#                                      ",
"                   .+++++#                                      ",
"                   .+++++#                                      ",
"                   .+++++#                                      ",
"                   .+++++#                                      ",
"                   .+++++#                                      ",
"                   .+++++#                                      ",
"                   .+++++#                                      ",
"                   .+++++#                                      ",
"                   .+++++#                                      ",
"                   .+++++#                                      ",
"                   .+++++#                                      ",
"                   .+++++#                                      ",
"                   .+++++#                                      ",
"                   .+++++#                                      ",
"                   .+++++#                                      ",
"                   .++++++++++++++++++++++++++++#               ",
"                   .++++++++++++++++++++++++++++#               ",
"                   .++++++++++++++++++++++++++++#               ",
"                   .++++++++++++++++++++++++++++#               ",
"                   .++++++++++++++++++++++++++++#               ",
"                                                                ",
"                                                                ",
"                                                                ",
"                                                                ",
"                                                                ",
"                                                                ",
"                                                                ",
"                                                                ",
"                                                                ",
"                                                                "};
