/* XPM */
static char * north_xpm[] = {
"64 64 98 2",
"  	c #FFFFFF",
". 	c #E36C80",
"+ 	c #E1516D",
"@ 	c #EFB7BD",
"# 	c #ECABB4",
"$ 	c #F7DDE0",
"% 	c #E25972",
"& 	c #FBF1F2",
"* 	c #E1536E",
"= 	c #FAECED",
"- 	c #EA9FA9",
"; 	c #F8E4E7",
"> 	c #E8939F",
", 	c #E47586",
"' 	c #F7DDDF",
") 	c #F4D1D5",
"! 	c #E78795",
"~ 	c #FFFEFE",
"{ 	c #FEFCFC",
"] 	c #E68593",
"^ 	c #F4D4D8",
"/ 	c #FFFDFE",
"( 	c #F6DBDE",
"_ 	c #E57A8A",
": 	c #FEFDFD",
"< 	c #E9919D",
"[ 	c #F3CBD0",
"} 	c #F8E4E6",
"| 	c #E36F82",
"1 	c #FDFAFA",
"2 	c #E99EA8",
"3 	c #F1C2C8",
"4 	c #F9EBEC",
"5 	c #E3657A",
"6 	c #FDF6F7",
"7 	c #EBAAB3",
"8 	c #EFB8BF",
"9 	c #FBF0F1",
"0 	c #E25B73",
"a 	c #FBF2F3",
"b 	c #EDB5BC",
"c 	c #EDAEB6",
"d 	c #FCF5F6",
"e 	c #E26378",
"f 	c #E1546F",
"g 	c #FAECEE",
"h 	c #EFBFC5",
"i 	c #EBA2AB",
"j 	c #FDF9F9",
"k 	c #E36B7F",
"l 	c #F8E6E8",
"m 	c #F2C9CE",
"n 	c #E994A0",
"o 	c #E57788",
"p 	c #F6DEE1",
"q 	c #F3D1D6",
"r 	c #E68896",
"s 	c #E68392",
"t 	c #F5D5D9",
"u 	c #F5DADD",
"v 	c #E57C8C",
"w 	c #E88F9B",
"x 	c #F3CDD2",
"y 	c #F7E2E5",
"z 	c #E47083",
"A 	c #FEFAFA",
"B 	c #EA9CA7",
"C 	c #F0C4C9",
"D 	c #F9EAEB",
"E 	c #E3667B",
"F 	c #FDF7F8",
"G 	c #ECA8B1",
"H 	c #EEBAC0",
"I 	c #E25871",
"J 	c #E25C74",
"K 	c #FCF3F4",
"L 	c #EEB3BA",
"M 	c #ECAFB8",
"N 	c #FCF4F5",
"O 	c #E25F77",
"P 	c #E15670",
"Q 	c #FAEDEF",
"R 	c #F0BDC3",
"S 	c #EAA4AD",
"T 	c #FDF8F9",
"U 	c #E36A7E",
"V 	c #F8E7E9",
"W 	c #F2C7CC",
"X 	c #E897A2",
"Y 	c #FEFBFC",
"Z 	c #E47486",
"` 	c #F3D0D4",
" .	c #E58190",
"..	c #F5D8DC",
"+.	c #E78D9A",
"@.	c #F7E1E3",
"#.	c #E999A4",
"$.	c #F9E8EA",
"                                                                                                                                ",
"                                                                                                                                ",
"                                                                                                                                ",
"                                                                                                                                ",
"                                                                                                                                ",
"                                                                                                                                ",
"                                                                                                                                ",
"                                                                                                                                ",
"                                                                                                                                ",
"                                                                                                                                ",
"                              . + + + + + + + @                                       # + + + + + $                             ",
"                              . + + + + + + + % &                                     # + + + + + $                             ",
"                              . + + + + + + + + #                                     # + + + + + $                             ",
"                              . + + + + + + + + * =                                   # + + + + + $                             ",
"                              . + + + + + + + + + -                                   # + + + + + $                             ",
"                              . + + + + + + + + + + ;                                 # + + + + + $                             ",
"                              . + + + + + + + + + + >                                 # + + + + + $                             ",
"                              . + + + + + , + + + + + '                               # + + + + + $                             ",
"                              . + + + + + ) + + + + + ! ~                             # + + + + + $                             ",
"                              . + + + + + { ] + + + + + ^                             # + + + + + $                             ",
"                              . + + + + + / ( + + + + + _ :                           # + + + + + $                             ",
"                              . + + + + + /   < + + + + + [                           # + + + + + $                             ",
"                              . + + + + + /   } + + + + + | 1                         # + + + + + $                             ",
"                              . + + + + + /     2 + + + + + 3                         # + + + + + $                             ",
"                              . + + + + + /     4 * + + + + 5 6                       # + + + + + $                             ",
"                              . + + + + + /       7 + + + + + 8                       # + + + + + $                             ",
"                              . + + + + + /       9 % + + + + 0 a                     # + + + + + $                             ",
"                              . + + + + + /         b + + + + + c                     # + + + + + $                             ",
"                              . + + + + + /         d e + + + + f g                   # + + + + + $                             ",
"                              . + + + + + /           h + + + + + i                   # + + + + + $                             ",
"                              . + + + + + /           j k + + + + + l                 # + + + + + $                             ",
"                              . + + + + + /             m + + + + + n                 # + + + + + $                             ",
"                              . + + + + + /             { o + + + + + p               # + + + + + $                             ",
"                              . + + + + + /               q + + + + + r ~             # + + + + + $                             ",
"                              . + + + + + /               ~ s + + + + + t             # + + + + + $                             ",
"                              . + + + + + /                 u + + + + + v :           # + + + + + $                             ",
"                              . + + + + + /                   w + + + + + x           # + + + + + $                             ",
"                              . + + + + + /                   y + + + + + z A         # + + + + + $                             ",
"                              . + + + + + /                     B + + + + + C         # + + + + + $                             ",
"                              . + + + + + /                     D * + + + + E F       # + + + + + $                             ",
"                              . + + + + + /                       G + + + + + H       # + + + + + $                             ",
"                              . + + + + + /                       9 I + + + + J K     # + + + + + $                             ",
"                              . + + + + + /                         L + + + + + M     # + + + + + $                             ",
"                              . + + + + + /                         N O + + + + P Q   # + + + + + $                             ",
"                              . + + + + + /                           R + + + + + S   # + + + + + $                             ",
"                              . + + + + + /                           T U + + + + + V # + + + + + $                             ",
"                              . + + + + + /                             W + + + + + X # + + + + + $                             ",
"                              . + + + + + /                             Y Z + + + + + o + + + + + $                             ",
"                              . + + + + + /                               ` + + + + + + + + + + + $                             ",
"                              . + + + + + /                               /  .+ + + + + + + + + + $                             ",
"                              . + + + + + /                                 ..+ + + + + + + + + + $                             ",
"                              . + + + + + /                                   +.+ + + + + + + + + $                             ",
"                              . + + + + + /                                   @.+ + + + + + + + + $                             ",
"                              . + + + + + /                                     #.+ + + + + + + + $                             ",
"                              . + + + + + /                                     $.+ + + + + + + + $                             ",
"                                                                                                                                ",
"                                                                                                                                ",
"                                                                                                                                ",
"                                                                                                                                ",
"                                                                                                                                ",
"                                                                                                                                ",
"                                                                                                                                ",
"                                                                                                                                ",
"                                                                                                                                "};
