/* XPM */
static char * rainbow2_xpm[] = {
"64 64 165 2",
"  	c #EA0008",
". 	c #D60007",
"+ 	c #DD0108",
"@ 	c #ED0008",
"# 	c #FB0009",
"$ 	c #F00008",
"% 	c #DF0108",
"& 	c #D30007",
"* 	c #EC0009",
"= 	c #F68803",
"- 	c #FE8200",
"; 	c #FE8601",
"> 	c #FFA001",
", 	c #FFB700",
"' 	c #FFAB01",
") 	c #FF9101",
"! 	c #FF7900",
"~ 	c #FF9801",
"{ 	c #FDD002",
"] 	c #FDE401",
"^ 	c #FDE402",
"/ 	c #FAE20E",
"( 	c #FAE30B",
"_ 	c #FDDC01",
": 	c #FAD90B",
"< 	c #F7D913",
"[ 	c #F8D919",
"} 	c #FCDB01",
"| 	c #FCEB01",
"1 	c #FBEA06",
"2 	c #F7E618",
"3 	c #F7E71F",
"4 	c #F7E71C",
"5 	c #FCF900",
"6 	c #F9F70A",
"7 	c #F4F317",
"8 	c #F5F314",
"9 	c #FCF901",
"0 	c #FCF500",
"a 	c #FBF500",
"b 	c #FAF40D",
"c 	c #F8F213",
"d 	c #FBF400",
"e 	c #FDE701",
"f 	c #FAE40A",
"g 	c #F4E11B",
"h 	c #F5E21A",
"i 	c #FCE601",
"j 	c #FED700",
"k 	c #F9D40A",
"l 	c #F9D613",
"m 	c #F8D514",
"n 	c #FED701",
"o 	c #FCED02",
"p 	c #FBEC06",
"q 	c #F5E719",
"r 	c #F6E715",
"s 	c #FBED02",
"t 	c #AFDA01",
"u 	c #B0D80E",
"v 	c #ADD614",
"w 	c #B0D617",
"x 	c #AED902",
"y 	c #55DC02",
"z 	c #57DB06",
"A 	c #5FDB19",
"B 	c #5BDB0F",
"C 	c #55DC01",
"D 	c #3BCC01",
"E 	c #3ECB07",
"F 	c #42C80F",
"G 	c #48C917",
"H 	c #3BCB01",
"I 	c #36D300",
"J 	c #3AD209",
"K 	c #44CF1A",
"L 	c #45D11A",
"M 	c #36D301",
"N 	c #30DC00",
"O 	c #36DB0C",
"P 	c #43DA1D",
"Q 	c #3ED917",
"R 	c #31DB00",
"S 	c #2FDC00",
"T 	c #36DA0E",
"U 	c #3DDB16",
"V 	c #35DC0B",
"W 	c #37D302",
"X 	c #3DD10F",
"Y 	c #36D201",
"Z 	c #3DCC04",
"` 	c #46CA16",
" .	c #49CA19",
"..	c #44CC13",
"+.	c #57DE01",
"@.	c #5BDC0C",
"#.	c #5EDA14",
"$.	c #61DB1A",
"%.	c #56DB02",
"&.	c #56DE01",
"*.	c #3ED2A7",
"=.	c #3ED2A5",
"-.	c #46CEA3",
";.	c #44CFA2",
">.	c #49D2A4",
",.	c #4ED1A3",
"'.	c #3FD2A6",
").	c #01D4FD",
"!.	c #08D3FC",
"~.	c #19D3F8",
"{.	c #13D3F9",
"].	c #1CD1F6",
"^.	c #21D0F5",
"/.	c #11D3FB",
"(.	c #01C3FF",
"_.	c #07C3FC",
":.	c #0EC1F8",
"<.	c #18C3F7",
"[.	c #03C2FC",
"}.	c #08C3FD",
"|.	c #00CEFF",
"1.	c #0BCDFB",
"2.	c #18CBF6",
"3.	c #1ACCF7",
"4.	c #01CEFE",
"5.	c #00D9FE",
"6.	c #0CD8FB",
"7.	c #1AD6F7",
"8.	c #17D7F8",
"9.	c #00D8FE",
"0.	c #00DCFF",
"a.	c #05DBFD",
"b.	c #15D9F7",
"c.	c #12D8F8",
"d.	c #01DCFE",
"e.	c #01D2FF",
"f.	c #0DCFFA",
"g.	c #1CD0F7",
"h.	c #1BD0F6",
"i.	c #01D1FD",
"j.	c #00C7FF",
"k.	c #06C6FC",
"l.	c #08C5F9",
"m.	c #0AC7FD",
"n.	c #00CCFF",
"o.	c #03CCFD",
"p.	c #04CBFB",
"q.	c #02C0FA",
"r.	c #01A0F8",
"s.	c #0089EB",
"t.	c #0196F3",
"u.	c #01A3FA",
"v.	c #01AAFD",
"w.	c #009DF6",
"x.	c #008FF0",
"y.	c #018FEF",
"z.	c #378FF5",
"A.	c #9F01FF",
"B.	c #8500FF",
"C.	c #8A00FF",
"D.	c #9501FF",
"E.	c #9B01FF",
"F.	c #9300FE",
"G.	c #8800FF",
"H.	c #9D00FE",
"                                                                                                                                ",
". . . . . . . . . . . . . . . . . . . . . . . . . . . . . . . . . . . . . . . . . . . . . . . . . . . . . . . . . . . . . . . . ",
"+ + + + + + + + + + + + + + + + + + + + + + + + + + + + + + + + + + + + + + + + + + + + + + + + + + + + + + + + + + + + + + + + ",
"@ @ @ @ @ @ @ @ @ @ @ @ @ @ @ @ @ @ @ @ @ @ @ @ @ @ @ @ @ @ @ @ @ @ @ @ @ @ @ @ @ @ @ @ @ @ @ @ @ @ @ @ @ @ @ @ @ @ @ @ @ @ @ @ ",
"# # # # # # # # # # # # # # # # # # # # # # # # # # # # # # # # # # # # # # # # # # # # # # # # # # # # # # # # # # # # # # # # ",
"$ $ $ $ $ $ $ $ $ $ $ $ $ $ $ $ $ $ $ $ $ $ $ $ $ $ $ $ $ $ $ $ $ $ $ $ $ $ $ $ $ $ $ $ $ $ $ $ $ $ $ $ $ $ $ $ $ $ $ $ $ $ $ $ ",
"% % % % % % % % % % % % % % % % % % % % % % % % % % % % % % % % % % % % % % % % % % % % % % % % % % % % % % % % % % % % % % % % ",
"& & & & & & & & & & & & & & & & & & & & & & & & & & & & & & & & & & & & & & & & & & & & & & & & & & & & & & & & & & & & & & & & ",
"* * * * * * * * * * * * * * * * * * * * * * * * * * * * * * * * * * * * * * * * * * * * * * * * * * * * * * * * * * * * * * * * ",
"= = = = = = = = = = = = = = = = = = = = = = = = = = = = = = = = = = = = = = = = = = = = = = = = = = = = = = = = = = = = = = = = ",
"- - - - - - - - - - - - - - - - - - - - - - - - - - - - - - - - - - - - - - - - - - - - - - - - - - - - - - - - - - - - - - - - ",
"; ; ; ; ; ; ; ; ; ; ; ; ; ; ; ; ; ; ; ; ; ; ; ; ; ; ; ; ; ; ; ; ; ; ; ; ; ; ; ; ; ; ; ; ; ; ; ; ; ; ; ; ; ; ; ; ; ; ; ; ; ; ; ; ",
"> > > > > > > > > > > > > > > > > > > > > > > > > > > > > > > > > > > > > > > > > > > > > > > > > > > > > > > > > > > > > > > > ",
", , , , , , , , , , , , , , , , , , , , , , , , , , , , , , , , , , , , , , , , , , , , , , , , , , , , , , , , , , , , , , , , ",
"' ' ' ' ' ' ' ' ' ' ' ' ' ' ' ' ' ' ' ' ' ' ' ' ' ' ' ' ' ' ' ' ' ' ' ' ' ' ' ' ' ' ' ' ' ' ' ' ' ' ' ' ' ' ' ' ' ' ' ' ' ' ' ' ",
") ) ) ) ) ) ) ) ) ) ) ) ) ) ) ) ) ) ) ) ) ) ) ) ) ) ) ) ) ) ) ) ) ) ) ) ) ) ) ) ) ) ) ) ) ) ) ) ) ) ) ) ) ) ) ) ) ) ) ) ) ) ) ) ",
"! ! ! ! ! ! ! ! ! ! ! ! ! ! ! ! ! ! ! ! ! ! ! ! ! ! ! ! ! ! ! ! ! ! ! ! ! ! ! ! ! ! ! ! ! ! ! ! ! ! ! ! ! ! ! ! ! ! ! ! ! ! ! ! ",
"~ ~ ~ ~ ~ ~ ~ ~ ~ ~ ~ ~ ~ ~ ~ ~ ~ ~ ~ ~ ~ ~ ~ ~ ~ ~ ~ ~ ~ ~ ~ ~ ~ ~ ~ ~ ~ ~ ~ ~ ~ ~ ~ ~ ~ ~ ~ ~ ~ ~ ~ ~ ~ ~ ~ ~ ~ ~ ~ ~ ~ ~ ~ ~ ",
"{ { { { { { { { { { { { { { { { { { { { { { { { { { { { { { { { { { { { { { { { { { { { { { { { { { { { { { { { { { { { { { { { ",
"] ] ] ] ] ] ] ] ] ] ] ] ] ] ] ] ] ] ] ] ] ] ] ] ] ] ] ] ] ^ / ( ] ] ] ] ] ] ] ] ] ] ] ] ] ] ] ] ] ] ] ] ] ] ] ] ] ] ] ] ] ] ] ] ",
"_ _ _ _ _ _ _ _ _ _ _ _ _ _ _ _ _ _ _ _ _ _ _ _ _ _ _ _ _ : < [ } _ _ _ _ _ _ _ _ _ _ _ _ _ _ _ _ _ _ _ _ _ _ _ _ _ _ _ _ _ _ _ ",
"| | | | | | | | | | | | | | | | | | | | | | | | | | | | | 1 2 3 4 | | | | | | | | | | | | | | | | | | | | | | | | | | | | | | | ",
"5 5 5 5 5 5 5 5 5 5 5 5 5 5 5 5 5 5 5 5 5 5 5 5 5 5 5 5 5 6 7 8 9 5 5 5 5 5 5 5 5 5 5 5 5 5 5 5 5 5 5 5 5 5 5 5 5 5 5 5 5 5 5 5 ",
"0 0 0 0 0 0 0 0 0 0 0 0 0 0 0 0 0 0 0 0 0 0 0 0 0 0 0 0 0 a b c d 0 0 0 0 0 0 0 0 0 0 0 0 0 0 0 0 0 0 0 0 0 0 0 0 0 0 0 0 0 0 0 ",
"e e e e e e e e e e e e e e e e e e e e e e e e e e e e e f g h i e e e e e e e e e e e e e e e e e e e e e e e e e e e e e e e ",
"j j j j j j j j j j j j j j j j j j j j j j j j j j j j j k l m n j j j j j j j j j j j j j j j j j j j j j j j j j j j j j j j ",
"o o o o o o o o o o o o o o o o o o o o o o o o o o o o o p q r s o o o o o o o o o o o o o o o o o o o o o o o o o o o o o o o ",
"t t t t t t t t t t t t t t t t t t t t t t t t t t t t t u v w x t t t t t t t t t t t t t t t t t t t t t t t t t t t t t t t ",
"y y y y y y y y y y y y y y y y y y y y y y y y y y y y y z A B C y y y y y y y y y y y y y y y y y y y y y y y y y y y y y y y ",
"D D D D D D D D D D D D D D D D D D D D D D D D D D D D D E F G H D D D D D D D D D D D D D D D D D D D D D D D D D D D D D D D ",
"I I I I I I I I I I I I I I I I I I I I I I I I I I I I I J K L M I I I I I I I I I I I I I I I I I I I I I I I I I I I I I I I ",
"N N N N N N N N N N N N N N N N N N N N N N N N N N N N N O P Q R N N N N N N N N N N N N N N N N N N N N N N N N N N N N N N N ",
"S S S S S S S S S S S S S S S S S S S S S S S S S S S S S T U V S S S S S S S S S S S S S S S S S S S S S S S S S S S S S S S S ",
"I I I I I I I I I I I I I I I I I I I I I I I I I I I I I W X L Y I I I I I I I I I I I I I I I I I I I I I I I I I I I I I I I ",
"D D D D D D D D D D D D D D D D D D D D D D D D D D D D D Z `  ...D D D D D D D D D D D D D D D D D D D D D D D D D D D D D D D ",
"+.+.+.+.+.+.+.+.+.+.+.+.+.+.+.+.+.+.+.+.+.+.+.+.+.+.+.+.+.@.#.$.%.&.+.+.+.+.+.+.+.+.+.+.+.+.+.+.+.+.+.+.+.+.+.+.+.+.+.+.+.+.+.+.",
"*.*.*.*.*.*.*.*.*.*.*.*.*.*.*.*.*.*.*.*.*.*.*.*.*.*.*.*.*.=.-.;.>.,.'.*.*.*.*.*.*.*.*.*.*.*.*.*.*.*.*.*.*.*.*.*.*.*.*.*.*.*.*.*.",
").).).).).).).).).).).).).).).).).).).).).).).).).).).).).!.~.{.].^./.).).).).).).).).).).).).).).).).).).).).).).).).).).).).).",
"(.(.(.(.(.(.(.(.(.(.(.(.(.(.(.(.(.(.(.(.(.(.(.(.(.(.(.(.(._.:.<.[.}.(.(.(.(.(.(.(.(.(.(.(.(.(.(.(.(.(.(.(.(.(.(.(.(.(.(.(.(.(.(.",
"|.|.|.|.|.|.|.|.|.|.|.|.|.|.|.|.|.|.|.|.|.|.|.|.|.|.|.|.|.1.2.3.4.|.|.|.|.|.|.|.|.|.|.|.|.|.|.|.|.|.|.|.|.|.|.|.|.|.|.|.|.|.|.|.",
"5.5.5.5.5.5.5.5.5.5.5.5.5.5.5.5.5.5.5.5.5.5.5.5.5.5.5.5.5.6.7.8.9.5.5.5.5.5.5.5.5.5.5.5.5.5.5.5.5.5.5.5.5.5.5.5.5.5.5.5.5.5.5.5.",
"0.0.0.0.0.0.0.0.0.0.0.0.0.0.0.0.0.0.0.0.0.0.0.0.0.0.0.0.0.a.b.c.d.0.0.0.0.0.0.0.0.0.0.0.0.0.0.0.0.0.0.0.0.0.0.0.0.0.0.0.0.0.0.0.",
"e.e.e.e.e.e.e.e.e.e.e.e.e.e.e.e.e.e.e.e.e.e.e.e.e.e.e.e.e.f.g.h.i.e.e.e.e.e.e.e.e.e.e.e.e.e.e.e.e.e.e.e.e.e.e.e.e.e.e.e.e.e.e.e.",
"j.j.j.j.j.j.j.j.j.j.j.j.j.j.j.j.j.j.j.j.j.j.j.j.j.j.j.j.j.k.l.m.j.j.j.j.j.j.j.j.j.j.j.j.j.j.j.j.j.j.j.j.j.j.j.j.j.j.j.j.j.j.j.j.",
"n.n.n.n.n.n.n.n.n.n.n.n.n.n.n.n.n.n.n.n.n.n.n.n.n.n.n.n.n.o.p.n.n.n.n.n.n.n.n.n.n.n.n.n.n.n.n.n.n.n.n.n.n.n.n.n.n.n.n.n.n.n.n.n.",
"q.q.q.q.q.q.q.q.q.q.q.q.q.q.q.q.q.q.q.q.q.q.q.q.q.q.q.q.q.q.q.q.q.q.q.q.q.q.q.q.q.q.q.q.q.q.q.q.q.q.q.q.q.q.q.q.q.q.q.q.q.q.q.q.",
"r.r.r.r.r.r.r.r.r.r.r.r.r.r.r.r.r.r.r.r.r.r.r.r.r.r.r.r.r.r.r.r.r.r.r.r.r.r.r.r.r.r.r.r.r.r.r.r.r.r.r.r.r.r.r.r.r.r.r.r.r.r.r.r.",
"s.s.s.s.s.s.s.s.s.s.s.s.s.s.s.s.s.s.s.s.s.s.s.s.s.s.s.s.s.s.s.s.s.s.s.s.s.s.s.s.s.s.s.s.s.s.s.s.s.s.s.s.s.s.s.s.s.s.s.s.s.s.s.s.",
"t.t.t.t.t.t.t.t.t.t.t.t.t.t.t.t.t.t.t.t.t.t.t.t.t.t.t.t.t.t.t.t.t.t.t.t.t.t.t.t.t.t.t.t.t.t.t.t.t.t.t.t.t.t.t.t.t.t.t.t.t.t.t.t.",
"u.u.u.u.u.u.u.u.u.u.u.u.u.u.u.u.u.u.u.u.u.u.u.u.u.u.u.u.u.u.u.u.u.u.u.u.u.u.u.u.u.u.u.u.u.u.u.u.u.u.u.u.u.u.u.u.u.u.u.u.u.u.u.u.",
"v.v.v.v.v.v.v.v.v.v.v.v.v.v.v.v.v.v.v.v.v.v.v.v.v.v.v.v.v.v.v.v.v.v.v.v.v.v.v.v.v.v.v.v.v.v.v.v.v.v.v.v.v.v.v.v.v.v.v.v.v.v.v.v.",
"w.w.w.w.w.w.w.w.w.w.w.w.w.w.w.w.w.w.w.w.w.w.w.w.w.w.w.w.w.w.w.w.w.w.w.w.w.w.w.w.w.w.w.w.w.w.w.w.w.w.w.w.w.w.w.w.w.w.w.w.w.w.w.w.",
"x.x.x.x.x.x.x.x.x.x.x.x.x.x.x.x.x.x.x.x.x.x.x.x.x.x.x.x.x.x.x.x.x.x.x.x.x.x.x.x.x.x.x.x.x.x.x.x.x.x.x.x.x.x.x.x.x.x.x.x.x.x.x.x.",
"y.y.y.y.y.y.y.y.y.y.y.y.y.y.y.y.y.y.y.y.y.y.y.y.y.y.y.y.y.y.y.y.y.y.y.y.y.y.y.y.y.y.y.y.y.y.y.y.y.y.y.y.y.y.y.y.y.y.y.y.y.y.y.y.",
"z.z.z.z.z.z.z.z.z.z.z.z.z.z.z.z.z.z.z.z.z.z.z.z.z.z.z.z.z.z.z.z.z.z.z.z.z.z.z.z.z.z.z.z.z.z.z.z.z.z.z.z.z.z.z.z.z.z.z.z.z.z.z.z.",
"A.A.A.A.A.A.A.A.A.A.A.A.A.A.A.A.A.A.A.A.A.A.A.A.A.A.A.A.A.A.A.A.A.A.A.A.A.A.A.A.A.A.A.A.A.A.A.A.A.A.A.A.A.A.A.A.A.A.A.A.A.A.A.A.",
"B.B.B.B.B.B.B.B.B.B.B.B.B.B.B.B.B.B.B.B.B.B.B.B.B.B.B.B.B.B.B.B.B.B.B.B.B.B.B.B.B.B.B.B.B.B.B.B.B.B.B.B.B.B.B.B.B.B.B.B.B.B.B.B.",
"C.C.C.C.C.C.C.C.C.C.C.C.C.C.C.C.C.C.C.C.C.C.C.C.C.C.C.C.C.C.C.C.C.C.C.C.C.C.C.C.C.C.C.C.C.C.C.C.C.C.C.C.C.C.C.C.C.C.C.C.C.C.C.C.",
"D.D.D.D.D.D.D.D.D.D.D.D.D.D.D.D.D.D.D.D.D.D.D.D.D.D.D.D.D.D.D.D.D.D.D.D.D.D.D.D.D.D.D.D.D.D.D.D.D.D.D.D.D.D.D.D.D.D.D.D.D.D.D.D.",
"E.E.E.E.E.E.E.E.E.E.E.E.E.E.E.E.E.E.E.E.E.E.E.E.E.E.E.E.E.E.E.E.E.E.E.E.E.E.E.E.E.E.E.E.E.E.E.E.E.E.E.E.E.E.E.E.E.E.E.E.E.E.E.E.",
"F.F.F.F.F.F.F.F.F.F.F.F.F.F.F.F.F.F.F.F.F.F.F.F.F.F.F.F.F.F.F.F.F.F.F.F.F.F.F.F.F.F.F.F.F.F.F.F.F.F.F.F.F.F.F.F.F.F.F.F.F.F.F.F.",
"C.C.C.C.C.C.C.C.C.C.C.C.C.C.C.C.C.C.C.C.C.C.C.C.C.C.C.C.C.C.C.C.C.C.C.C.C.C.C.C.C.C.C.C.C.C.C.C.C.C.C.C.C.C.C.C.C.C.C.C.C.C.C.C.",
"G.G.G.G.G.G.G.G.G.G.G.G.G.G.G.G.G.G.G.G.G.G.G.G.G.G.G.G.G.G.G.G.G.G.G.G.G.G.G.G.G.G.G.G.G.G.G.G.G.G.G.G.G.G.G.G.G.G.G.G.G.G.G.G.",
"H.H.H.H.H.H.H.H.H.H.H.H.H.H.H.H.H.H.H.H.H.H.H.H.H.H.H.H.H.H.H.H.H.H.H.H.H.H.H.H.H.H.H.H.H.H.H.H.H.H.H.H.H.H.H.H.H.H.H.H.H.H.H.H."};
