/* XPM */
static char * rainbow_xpm[] = {
"64 64 165 2",
"  	c #EA0008",
". 	c #D60007",
"+ 	c #DD0108",
"@ 	c #ED0008",
"# 	c #FB0009",
"$ 	c #F00008",
"% 	c #DF0108",
"& 	c #D30007",
"* 	c #EC0009",
"= 	c #F68803",
"- 	c #FE8200",
"; 	c #FE8601",
"> 	c #FFA001",
", 	c #FFB700",
"' 	c #FFAB01",
") 	c #FF9101",
"! 	c #FF7900",
"~ 	c #FF9801",
"{ 	c #FDD002",
"] 	c #FDE401",
"^ 	c #FDDC01",
"/ 	c #FCEB01",
"( 	c #FCF900",
"_ 	c #FCF500",
": 	c #FDE701",
"< 	c #FED700",
"[ 	c #FCED02",
"} 	c #AFDA01",
"| 	c #55DC02",
"1 	c #3BCC01",
"2 	c #36D300",
"3 	c #30DC00",
"4 	c #2FDC00",
"5 	c #57DE01",
"6 	c #3ED2A7",
"7 	c #01D4FD",
"8 	c #01C3FF",
"9 	c #00CEFF",
"0 	c #00D9FE",
"a 	c #00DCFF",
"b 	c #01D2FF",
"c 	c #00C7FF",
"d 	c #00CCFF",
"e 	c #02C0FA",
"f 	c #01A0F8",
"g 	c #0089EB",
"h 	c #0196F3",
"i 	c #01A3FA",
"j 	c #01AAFD",
"k 	c #009DF6",
"l 	c #008FF0",
"m 	c #018FEF",
"n 	c #378FF5",
"o 	c #9F01FF",
"p 	c #8500FF",
"q 	c #8A00FF",
"r 	c #9501FF",
"s 	c #9B01FF",
"t 	c #9300FE",
"u 	c #8800FF",
"v 	c #9D00FE",
"w 	c #3FD2A6",
"x 	c #11D3FB",
"y 	c #56DE01",
"z 	c #4ED1A3",
"A 	c #21D0F5",
"B 	c #08C3FD",
"C 	c #FCDB01",
"D 	c #F7E71C",
"E 	c #FCF901",
"F 	c #FBF400",
"G 	c #FCE601",
"H 	c #FED701",
"I 	c #FBED02",
"J 	c #AED902",
"K 	c #55DC01",
"L 	c #3BCB01",
"M 	c #36D301",
"N 	c #31DB00",
"O 	c #36D201",
"P 	c #44CC13",
"Q 	c #56DB02",
"R 	c #49D2A4",
"S 	c #1CD1F6",
"T 	c #03C2FC",
"U 	c #01CEFE",
"V 	c #00D8FE",
"W 	c #01DCFE",
"X 	c #01D1FD",
"Y 	c #FAE30B",
"Z 	c #F8D919",
"` 	c #F7E71F",
" .	c #F5F314",
"..	c #F8F213",
"+.	c #F5E21A",
"@.	c #F8D514",
"#.	c #F6E715",
"$.	c #B0D617",
"%.	c #5BDB0F",
"&.	c #48C917",
"*.	c #45D11A",
"=.	c #3ED917",
"-.	c #35DC0B",
";.	c #49CA19",
">.	c #61DB1A",
",.	c #44CFA2",
"'.	c #13D3F9",
").	c #18C3F7",
"!.	c #1ACCF7",
"~.	c #17D7F8",
"{.	c #12D8F8",
"].	c #1BD0F6",
"^.	c #0AC7FD",
"/.	c #FAE20E",
"(.	c #F7D913",
"_.	c #F7E618",
":.	c #F4F317",
"<.	c #FAF40D",
"[.	c #F4E11B",
"}.	c #F9D613",
"|.	c #F5E719",
"1.	c #ADD614",
"2.	c #5FDB19",
"3.	c #42C80F",
"4.	c #44CF1A",
"5.	c #43DA1D",
"6.	c #3DDB16",
"7.	c #3DD10F",
"8.	c #46CA16",
"9.	c #5EDA14",
"0.	c #46CEA3",
"a.	c #19D3F8",
"b.	c #0EC1F8",
"c.	c #18CBF6",
"d.	c #1AD6F7",
"e.	c #15D9F7",
"f.	c #1CD0F7",
"g.	c #08C5F9",
"h.	c #04CBFB",
"i.	c #FDE402",
"j.	c #FAD90B",
"k.	c #FBEA06",
"l.	c #F9F70A",
"m.	c #FBF500",
"n.	c #FAE40A",
"o.	c #F9D40A",
"p.	c #FBEC06",
"q.	c #B0D80E",
"r.	c #57DB06",
"s.	c #3ECB07",
"t.	c #3AD209",
"u.	c #36DB0C",
"v.	c #36DA0E",
"w.	c #37D302",
"x.	c #3DCC04",
"y.	c #5BDC0C",
"z.	c #3ED2A5",
"A.	c #08D3FC",
"B.	c #07C3FC",
"C.	c #0BCDFB",
"D.	c #0CD8FB",
"E.	c #05DBFD",
"F.	c #0DCFFA",
"G.	c #06C6FC",
"H.	c #03CCFD",
"  . + @ # $ % & * = - ; > , ' ) ! ~ { ] ^ / ( _ : < [ } | 1 2 3 4 2 1 5 6 7 8 9 0 a b c d e f g h i j k l m n o p q r s t q u v ",
"  . + @ # $ % & * = - ; > , ' ) ! ~ { ] ^ / ( _ : < [ } | 1 2 3 4 2 1 5 6 7 8 9 0 a b c d e f g h i j k l m n o p q r s t q u v ",
"  . + @ # $ % & * = - ; > , ' ) ! ~ { ] ^ / ( _ : < [ } | 1 2 3 4 2 1 5 6 7 8 9 0 a b c d e f g h i j k l m n o p q r s t q u v ",
"  . + @ # $ % & * = - ; > , ' ) ! ~ { ] ^ / ( _ : < [ } | 1 2 3 4 2 1 5 6 7 8 9 0 a b c d e f g h i j k l m n o p q r s t q u v ",
"  . + @ # $ % & * = - ; > , ' ) ! ~ { ] ^ / ( _ : < [ } | 1 2 3 4 2 1 5 6 7 8 9 0 a b c d e f g h i j k l m n o p q r s t q u v ",
"  . + @ # $ % & * = - ; > , ' ) ! ~ { ] ^ / ( _ : < [ } | 1 2 3 4 2 1 5 6 7 8 9 0 a b c d e f g h i j k l m n o p q r s t q u v ",
"  . + @ # $ % & * = - ; > , ' ) ! ~ { ] ^ / ( _ : < [ } | 1 2 3 4 2 1 5 6 7 8 9 0 a b c d e f g h i j k l m n o p q r s t q u v ",
"  . + @ # $ % & * = - ; > , ' ) ! ~ { ] ^ / ( _ : < [ } | 1 2 3 4 2 1 5 6 7 8 9 0 a b c d e f g h i j k l m n o p q r s t q u v ",
"  . + @ # $ % & * = - ; > , ' ) ! ~ { ] ^ / ( _ : < [ } | 1 2 3 4 2 1 5 6 7 8 9 0 a b c d e f g h i j k l m n o p q r s t q u v ",
"  . + @ # $ % & * = - ; > , ' ) ! ~ { ] ^ / ( _ : < [ } | 1 2 3 4 2 1 5 6 7 8 9 0 a b c d e f g h i j k l m n o p q r s t q u v ",
"  . + @ # $ % & * = - ; > , ' ) ! ~ { ] ^ / ( _ : < [ } | 1 2 3 4 2 1 5 6 7 8 9 0 a b c d e f g h i j k l m n o p q r s t q u v ",
"  . + @ # $ % & * = - ; > , ' ) ! ~ { ] ^ / ( _ : < [ } | 1 2 3 4 2 1 5 6 7 8 9 0 a b c d e f g h i j k l m n o p q r s t q u v ",
"  . + @ # $ % & * = - ; > , ' ) ! ~ { ] ^ / ( _ : < [ } | 1 2 3 4 2 1 5 6 7 8 9 0 a b c d e f g h i j k l m n o p q r s t q u v ",
"  . + @ # $ % & * = - ; > , ' ) ! ~ { ] ^ / ( _ : < [ } | 1 2 3 4 2 1 5 6 7 8 9 0 a b c d e f g h i j k l m n o p q r s t q u v ",
"  . + @ # $ % & * = - ; > , ' ) ! ~ { ] ^ / ( _ : < [ } | 1 2 3 4 2 1 5 6 7 8 9 0 a b c d e f g h i j k l m n o p q r s t q u v ",
"  . + @ # $ % & * = - ; > , ' ) ! ~ { ] ^ / ( _ : < [ } | 1 2 3 4 2 1 5 6 7 8 9 0 a b c d e f g h i j k l m n o p q r s t q u v ",
"  . + @ # $ % & * = - ; > , ' ) ! ~ { ] ^ / ( _ : < [ } | 1 2 3 4 2 1 5 6 7 8 9 0 a b c d e f g h i j k l m n o p q r s t q u v ",
"  . + @ # $ % & * = - ; > , ' ) ! ~ { ] ^ / ( _ : < [ } | 1 2 3 4 2 1 5 6 7 8 9 0 a b c d e f g h i j k l m n o p q r s t q u v ",
"  . + @ # $ % & * = - ; > , ' ) ! ~ { ] ^ / ( _ : < [ } | 1 2 3 4 2 1 5 6 7 8 9 0 a b c d e f g h i j k l m n o p q r s t q u v ",
"  . + @ # $ % & * = - ; > , ' ) ! ~ { ] ^ / ( _ : < [ } | 1 2 3 4 2 1 5 6 7 8 9 0 a b c d e f g h i j k l m n o p q r s t q u v ",
"  . + @ # $ % & * = - ; > , ' ) ! ~ { ] ^ / ( _ : < [ } | 1 2 3 4 2 1 5 6 7 8 9 0 a b c d e f g h i j k l m n o p q r s t q u v ",
"  . + @ # $ % & * = - ; > , ' ) ! ~ { ] ^ / ( _ : < [ } | 1 2 3 4 2 1 5 6 7 8 9 0 a b c d e f g h i j k l m n o p q r s t q u v ",
"  . + @ # $ % & * = - ; > , ' ) ! ~ { ] ^ / ( _ : < [ } | 1 2 3 4 2 1 5 6 7 8 9 0 a b c d e f g h i j k l m n o p q r s t q u v ",
"  . + @ # $ % & * = - ; > , ' ) ! ~ { ] ^ / ( _ : < [ } | 1 2 3 4 2 1 5 6 7 8 9 0 a b c d e f g h i j k l m n o p q r s t q u v ",
"  . + @ # $ % & * = - ; > , ' ) ! ~ { ] ^ / ( _ : < [ } | 1 2 3 4 2 1 5 6 7 8 9 0 a b c d e f g h i j k l m n o p q r s t q u v ",
"  . + @ # $ % & * = - ; > , ' ) ! ~ { ] ^ / ( _ : < [ } | 1 2 3 4 2 1 5 6 7 8 9 0 a b c d e f g h i j k l m n o p q r s t q u v ",
"  . + @ # $ % & * = - ; > , ' ) ! ~ { ] ^ / ( _ : < [ } | 1 2 3 4 2 1 5 6 7 8 9 0 a b c d e f g h i j k l m n o p q r s t q u v ",
"  . + @ # $ % & * = - ; > , ' ) ! ~ { ] ^ / ( _ : < [ } | 1 2 3 4 2 1 5 6 7 8 9 0 a b c d e f g h i j k l m n o p q r s t q u v ",
"  . + @ # $ % & * = - ; > , ' ) ! ~ { ] ^ / ( _ : < [ } | 1 2 3 4 2 1 5 6 7 8 9 0 a b c d e f g h i j k l m n o p q r s t q u v ",
"  . + @ # $ % & * = - ; > , ' ) ! ~ { ] ^ / ( _ : < [ } | 1 2 3 4 2 1 5 w x 8 9 0 a b c d e f g h i j k l m n o p q r s t q u v ",
"  . + @ # $ % & * = - ; > , ' ) ! ~ { ] ^ / ( _ : < [ } | 1 2 3 4 2 1 y z A B 9 0 a b c d e f g h i j k l m n o p q r s t q u v ",
"  . + @ # $ % & * = - ; > , ' ) ! ~ { ] C D E F G H I J K L M N 4 O P Q R S T U V W X c d e f g h i j k l m n o p q r s t q u v ",
"  . + @ # $ % & * = - ; > , ' ) ! ~ { Y Z `  ...+.@.#.$.%.&.*.=.-.*.;.>.,.'.).!.~.{.].^.d e f g h i j k l m n o p q r s t q u v ",
"  . + @ # $ % & * = - ; > , ' ) ! ~ { /.(._.:.<.[.}.|.1.2.3.4.5.6.7.8.9.0.a.b.c.d.e.f.g.h.e f g h i j k l m n o p q r s t q u v ",
"  . + @ # $ % & * = - ; > , ' ) ! ~ { i.j.k.l.m.n.o.p.q.r.s.t.u.v.w.x.y.z.A.B.C.D.E.F.G.H.e f g h i j k l m n o p q r s t q u v ",
"  . + @ # $ % & * = - ; > , ' ) ! ~ { ] ^ / ( _ : < [ } | 1 2 3 4 2 1 5 6 7 8 9 0 a b c d e f g h i j k l m n o p q r s t q u v ",
"  . + @ # $ % & * = - ; > , ' ) ! ~ { ] ^ / ( _ : < [ } | 1 2 3 4 2 1 5 6 7 8 9 0 a b c d e f g h i j k l m n o p q r s t q u v ",
"  . + @ # $ % & * = - ; > , ' ) ! ~ { ] ^ / ( _ : < [ } | 1 2 3 4 2 1 5 6 7 8 9 0 a b c d e f g h i j k l m n o p q r s t q u v ",
"  . + @ # $ % & * = - ; > , ' ) ! ~ { ] ^ / ( _ : < [ } | 1 2 3 4 2 1 5 6 7 8 9 0 a b c d e f g h i j k l m n o p q r s t q u v ",
"  . + @ # $ % & * = - ; > , ' ) ! ~ { ] ^ / ( _ : < [ } | 1 2 3 4 2 1 5 6 7 8 9 0 a b c d e f g h i j k l m n o p q r s t q u v ",
"  . + @ # $ % & * = - ; > , ' ) ! ~ { ] ^ / ( _ : < [ } | 1 2 3 4 2 1 5 6 7 8 9 0 a b c d e f g h i j k l m n o p q r s t q u v ",
"  . + @ # $ % & * = - ; > , ' ) ! ~ { ] ^ / ( _ : < [ } | 1 2 3 4 2 1 5 6 7 8 9 0 a b c d e f g h i j k l m n o p q r s t q u v ",
"  . + @ # $ % & * = - ; > , ' ) ! ~ { ] ^ / ( _ : < [ } | 1 2 3 4 2 1 5 6 7 8 9 0 a b c d e f g h i j k l m n o p q r s t q u v ",
"  . + @ # $ % & * = - ; > , ' ) ! ~ { ] ^ / ( _ : < [ } | 1 2 3 4 2 1 5 6 7 8 9 0 a b c d e f g h i j k l m n o p q r s t q u v ",
"  . + @ # $ % & * = - ; > , ' ) ! ~ { ] ^ / ( _ : < [ } | 1 2 3 4 2 1 5 6 7 8 9 0 a b c d e f g h i j k l m n o p q r s t q u v ",
"  . + @ # $ % & * = - ; > , ' ) ! ~ { ] ^ / ( _ : < [ } | 1 2 3 4 2 1 5 6 7 8 9 0 a b c d e f g h i j k l m n o p q r s t q u v ",
"  . + @ # $ % & * = - ; > , ' ) ! ~ { ] ^ / ( _ : < [ } | 1 2 3 4 2 1 5 6 7 8 9 0 a b c d e f g h i j k l m n o p q r s t q u v ",
"  . + @ # $ % & * = - ; > , ' ) ! ~ { ] ^ / ( _ : < [ } | 1 2 3 4 2 1 5 6 7 8 9 0 a b c d e f g h i j k l m n o p q r s t q u v ",
"  . + @ # $ % & * = - ; > , ' ) ! ~ { ] ^ / ( _ : < [ } | 1 2 3 4 2 1 5 6 7 8 9 0 a b c d e f g h i j k l m n o p q r s t q u v ",
"  . + @ # $ % & * = - ; > , ' ) ! ~ { ] ^ / ( _ : < [ } | 1 2 3 4 2 1 5 6 7 8 9 0 a b c d e f g h i j k l m n o p q r s t q u v ",
"  . + @ # $ % & * = - ; > , ' ) ! ~ { ] ^ / ( _ : < [ } | 1 2 3 4 2 1 5 6 7 8 9 0 a b c d e f g h i j k l m n o p q r s t q u v ",
"  . + @ # $ % & * = - ; > , ' ) ! ~ { ] ^ / ( _ : < [ } | 1 2 3 4 2 1 5 6 7 8 9 0 a b c d e f g h i j k l m n o p q r s t q u v ",
"  . + @ # $ % & * = - ; > , ' ) ! ~ { ] ^ / ( _ : < [ } | 1 2 3 4 2 1 5 6 7 8 9 0 a b c d e f g h i j k l m n o p q r s t q u v ",
"  . + @ # $ % & * = - ; > , ' ) ! ~ { ] ^ / ( _ : < [ } | 1 2 3 4 2 1 5 6 7 8 9 0 a b c d e f g h i j k l m n o p q r s t q u v ",
"  . + @ # $ % & * = - ; > , ' ) ! ~ { ] ^ / ( _ : < [ } | 1 2 3 4 2 1 5 6 7 8 9 0 a b c d e f g h i j k l m n o p q r s t q u v ",
"  . + @ # $ % & * = - ; > , ' ) ! ~ { ] ^ / ( _ : < [ } | 1 2 3 4 2 1 5 6 7 8 9 0 a b c d e f g h i j k l m n o p q r s t q u v ",
"  . + @ # $ % & * = - ; > , ' ) ! ~ { ] ^ / ( _ : < [ } | 1 2 3 4 2 1 5 6 7 8 9 0 a b c d e f g h i j k l m n o p q r s t q u v ",
"  . + @ # $ % & * = - ; > , ' ) ! ~ { ] ^ / ( _ : < [ } | 1 2 3 4 2 1 5 6 7 8 9 0 a b c d e f g h i j k l m n o p q r s t q u v ",
"  . + @ # $ % & * = - ; > , ' ) ! ~ { ] ^ / ( _ : < [ } | 1 2 3 4 2 1 5 6 7 8 9 0 a b c d e f g h i j k l m n o p q r s t q u v ",
"  . + @ # $ % & * = - ; > , ' ) ! ~ { ] ^ / ( _ : < [ } | 1 2 3 4 2 1 5 6 7 8 9 0 a b c d e f g h i j k l m n o p q r s t q u v ",
"  . + @ # $ % & * = - ; > , ' ) ! ~ { ] ^ / ( _ : < [ } | 1 2 3 4 2 1 5 6 7 8 9 0 a b c d e f g h i j k l m n o p q r s t q u v ",
"  . + @ # $ % & * = - ; > , ' ) ! ~ { ] ^ / ( _ : < [ } | 1 2 3 4 2 1 5 6 7 8 9 0 a b c d e f g h i j k l m n o p q r s t q u v ",
"  . + @ # $ % & * = - ; > , ' ) ! ~ { ] ^ / ( _ : < [ } | 1 2 3 4 2 1 5 6 7 8 9 0 a b c d e f g h i j k l m n o p q r s t q u v ",
"  . + @ # $ % & * = - ; > , ' ) ! ~ { ] ^ / ( _ : < [ } | 1 2 3 4 2 1 5 6 7 8 9 0 a b c d e f g h i j k l m n o p q r s t q u v "};
