/* XPM */
static char * south_xpm[] = {
"64 64 145 2",
"  	c #FFFFFF",
". 	c #EEEDF6",
"+ 	c #D1D0E9",
"@ 	c #B0ADDB",
"# 	c #8A85CF",
"$ 	c #766EC9",
"% 	c #6057C4",
"& 	c #4432BF",
"* 	c #3F2BBF",
"= 	c #5447C2",
"- 	c #635AC4",
"; 	c #7972CA",
"> 	c #9591D2",
", 	c #ACA9DA",
"' 	c #C1BFE2",
") 	c #DBDAEE",
"! 	c #F2F2F8",
"~ 	c #FAFAFC",
"{ 	c #CECCE8",
"] 	c #837ECC",
"^ 	c #310EBD",
"/ 	c #5A4FC3",
"( 	c #9C98D4",
"_ 	c #C9C7E6",
": 	c #EBEBF6",
"< 	c #DAD9ED",
"[ 	c #E9E9F5",
"} 	c #FCFBFD",
"| 	c #A6A2D8",
"1 	c #FCFCFD",
"2 	c #908BD0",
"3 	c #A9A6D9",
"4 	c #3C27BE",
"5 	c #938FD2",
"6 	c #C8C6E5",
"7 	c #E0DFF0",
"8 	c #F9F8FC",
"9 	c #FEFEFE",
"0 	c #F9F9FC",
"a 	c #F1F1F8",
"b 	c #E9E8F4",
"c 	c #D3D1EA",
"d 	c #B6B4DE",
"e 	c #918CD1",
"f 	c #DCDBEF",
"g 	c #371DBE",
"h 	c #ABA8DA",
"i 	c #F4F4FA",
"j 	c #FBFBFD",
"k 	c #AEABDB",
"l 	c #817ACC",
"m 	c #D8D7EC",
"n 	c #D5D4EB",
"o 	c #928DD1",
"p 	c #EAEAF5",
"q 	c #E7E7F4",
"r 	c #CCCBE7",
"s 	c #BEBCE1",
"t 	c #7A73CA",
"u 	c #9994D3",
"v 	c #C0BEE2",
"w 	c #D8D7ED",
"x 	c #685FC6",
"y 	c #E1E0F0",
"z 	c #6F68C8",
"A 	c #8580CD",
"B 	c #B7B5DE",
"C 	c #9F9BD5",
"D 	c #6258C4",
"E 	c #CAC8E6",
"F 	c #A29ED7",
"G 	c #F0EFF7",
"H 	c #3417BD",
"I 	c #E4E4F2",
"J 	c #A19DD6",
"K 	c #817BCC",
"L 	c #C2C0E3",
"M 	c #4C3DC0",
"N 	c #5245C1",
"O 	c #928ED2",
"P 	c #BBB8E0",
"Q 	c #D9D8ED",
"R 	c #F3F3F9",
"S 	c #655CC5",
"T 	c #CCCAE7",
"U 	c #EDECF6",
"V 	c #7C76CB",
"W 	c #C6C4E4",
"X 	c #F5F5FA",
"Y 	c #9995D4",
"Z 	c #4838C0",
"` 	c #BCBAE0",
" .	c #E6E5F3",
"..	c #9E9AD5",
"+.	c #E4E3F2",
"@.	c #F8F8FC",
"#.	c #9D9AD5",
"$.	c #5C51C3",
"%.	c #412EBF",
"&.	c #D2D1EA",
"*.	c #ECECF6",
"=.	c #CFCDE8",
"-.	c #AFACDB",
";.	c #8681CE",
">.	c #3A22BE",
",.	c #FDFDFE",
"'.	c #E6E6F3",
").	c #C4C3E4",
"!.	c #8B86D0",
"~.	c #EBEAF5",
"{.	c #4A3BC0",
"].	c #F8F7FC",
"^.	c #F5F4FA",
"/.	c #6A62C6",
"(.	c #6960C7",
"_.	c #B9B6DF",
":.	c #B9B7DF",
"<.	c #A7A4D8",
"[.	c #6C63C7",
"}.	c #A4A1D7",
"|.	c #DFDFF0",
"1.	c #CBC9E7",
"2.	c #736CC8",
"3.	c #F0F0F7",
"4.	c #C3C1E3",
"5.	c #F6F6FB",
"6.	c #F7F7FB",
"7.	c #8782CD",
"8.	c #9692D3",
"9.	c #D2D0EA",
"0.	c #CECDE8",
"a.	c #D1CFE9",
"b.	c #E5E5F3",
"c.	c #EEEEF7",
"d.	c #F7F6FB",
"e.	c #D0CEE9",
"f.	c #574BC2",
"g.	c #B2AFDC",
"h.	c #C9C8E6",
"i.	c #DEDEEF",
"j.	c #EAE9F5",
"k.	c #4E40C1",
"l.	c #847FCD",
"m.	c #BFBDE1",
"n.	c #DEDDEF",
"                                                                                                                                ",
"                                                                                                                                ",
"                                                                                                                                ",
"                                                                                                                                ",
"                                                                                                                                ",
"                                                                                                                                ",
"                                                                                                                                ",
"                                                                                                                                ",
"                                                    . + @ # $ % & * = - ; > , ' ) !                                             ",
"                                              ~ { ] ^ ^ ^ ^ ^ ^ ^ ^ ^ ^ ^ ^ ^ ^ ^ ^ / ( _ :                                     ",
"                                            < - ^ ^ ^ ^ ^ ^ ^ ^ ^ ^ ^ ^ ^ ^ ^ ^ ^ ^ ^ ^ ^ ^ [                                   ",
"                                        } | ^ ^ ^ ^ ^ ^ ^ ^ ^ ^ ^ ^ ^ ^ ^ ^ ^ ^ ^ ^ ^ ^ ^ ^ [                                   ",
"                                      1 2 ^ ^ ^ ^ ^ ^ ^ ^ ^ ^ ^ ^ ^ ^ ^ ^ ^ ^ ^ ^ ^ ^ ^ ^ ^ [                                   ",
"                                      3 ^ ^ ^ ^ ^ ^ ^ 4 5 6 7 ! 8 9 0 a b c d e & ^ ^ ^ ^ ^ [                                   ",
"                                    f ^ ^ ^ ^ ^ ^ g h i                         j ) k / ^ ^ [                                   ",
"                                    l ^ ^ ^ ^ ^ & m                                   1 n o p                                   ",
"                                  q ^ ^ ^ ^ ^ ^ r                                                                               ",
"                                  s ^ ^ ^ ^ ^ t                                                                                 ",
"                                  u ^ ^ ^ ^ ^ v                                                                                 ",
"                                  ; ^ ^ ^ ^ ^ w                                                                                 ",
"                                  x ^ ^ ^ ^ ^ y                                                                                 ",
"                                  z ^ ^ ^ ^ ^ m                                                                                 ",
"                                  A ^ ^ ^ ^ ^ B                                                                                 ",
"                                  C ^ ^ ^ ^ ^ D ~                                                                               ",
"                                  E ^ ^ ^ ^ ^ ^ F 9                                                                             ",
"                                  G H ^ ^ ^ ^ ^ ^ A I                                                                           ",
"                                    J ^ ^ ^ ^ ^ ^ ^ ^ K L p 9                                                                   ",
"                                    . M ^ ^ ^ ^ ^ ^ ^ ^ ^ ^ N O P Q R                                                           ",
"                                      < H ^ ^ ^ ^ ^ ^ ^ ^ ^ ^ ^ ^ ^ ^ S F T U                                                   ",
"                                        Q = ^ ^ ^ ^ ^ ^ ^ ^ ^ ^ ^ ^ ^ ^ ^ ^ ^ V W X                                             ",
"                                          G Y ^ ^ ^ ^ ^ ^ ^ ^ ^ ^ ^ ^ ^ ^ ^ ^ ^ ^ Z ` ~                                         ",
"                                               ...& ^ ^ ^ ^ ^ ^ ^ ^ ^ ^ ^ ^ ^ ^ ^ ^ ^ - +.                                      ",
"                                                  @.{ #.$.^ ^ ^ ^ ^ ^ ^ ^ ^ ^ ^ ^ ^ ^ ^ %.&.                                    ",
"                                                          *.=.-.;.Z ^ ^ ^ ^ ^ ^ ^ ^ ^ ^ ^ >.7                                   ",
"                                                                  ,.'.).!.H ^ ^ ^ ^ ^ ^ ^ ^ / X                                 ",
"                                                                          a @ %.^ ^ ^ ^ ^ ^ ^ d                                 ",
"                                                                              ~.$ ^ ^ ^ ^ ^ ^ {.].                              ",
"                                                                                ^./.^ ^ ^ ^ ^ ^ m                               ",
"                                                                                  Q ^ ^ ^ ^ ^ ^ @                               ",
"                                                                                    (.^ ^ ^ ^ ^ 2                               ",
"                                                                                    | ^ ^ ^ ^ ^ V                               ",
"                                                                                    _.^ ^ ^ ^ ^ x                               ",
"                                                                                    :.^ ^ ^ ^ ^ z                               ",
"                                                                                    <.^ ^ ^ ^ ^ A                               ",
"                                                                                    [.^ ^ ^ ^ ^ }.                              ",
"                                                                                  |.^ ^ ^ ^ ^ ^ E                               ",
"                                  , 1.}                                         ~ 2.^ ^ ^ ^ ^ H 3.                              ",
"                                  o ^ % 4.5.                                  6.7.^ ^ ^ ^ ^ ^ 5                                 ",
"                                  o ^ ^ ^ 4 8.9.0                         ,.0.% ^ ^ ^ ^ ^ ^ g  .                                ",
"                                  o ^ ^ ^ ^ ^ ^ * K -.a.b.c.d.9 ~ i q e.h f.^ ^ ^ ^ ^ ^ ^ ^ B                                   ",
"                                  o ^ ^ ^ ^ ^ ^ ^ ^ ^ ^ ^ ^ ^ ^ ^ ^ ^ ^ ^ ^ ^ ^ ^ ^ ^ ^ ^ ..9                                   ",
"                                  o ^ ^ ^ ^ ^ ^ ^ ^ ^ ^ ^ ^ ^ ^ ^ ^ ^ ^ ^ ^ ^ ^ ^ ^ ^ ^ g.9                                     ",
"                                  X h.# H ^ ^ ^ ^ ^ ^ ^ ^ ^ ^ ^ ^ ^ ^ ^ ^ ^ ^ ^ ^ ^ t i.                                        ",
"                                        ! 1.C / ^ ^ ^ ^ ^ ^ ^ ^ ^ ^ ^ ^ ^ ^ ^ & Y < 9                                           ",
"                                                j.+ _.( V (.= g 4 k./.l.F m.n.~                                                 ",
"                                                                                                                                ",
"                                                                                                                                ",
"                                                                                                                                ",
"                                                                                                                                ",
"                                                                                                                                ",
"                                                                                                                                ",
"                                                                                                                                ",
"                                                                                                                                ",
"                                                                                                                                "};
