/* XPM */
static char * west_xpm[] = {
"64 64 148 2",
"  	c #FFFFFF",
". 	c #78CB79",
"+ 	c #12BD18",
"@ 	c #D2EAD2",
"# 	c #59C45A",
"$ 	c #E5F3E5",
"% 	c #F7FCF7",
"& 	c #19BD1E",
"* 	c #EDF6ED",
"= 	c #B1DDB1",
"- 	c #A9DAA9",
"; 	c #C1E3C2",
"> 	c #D8EDD8",
", 	c #5BC45C",
"' 	c #D9EDD9",
") 	c #6BC86C",
"! 	c #CBE7CB",
"~ 	c #92D392",
"{ 	c #A0D7A1",
"] 	c #1FBE23",
"^ 	c #F3F9F3",
"/ 	c #9FD79F",
"( 	c #41C143",
"_ 	c #FDFEFD",
": 	c #7ACB7A",
"< 	c #CCE8CD",
"[ 	c #EFF7EF",
"} 	c #B2DDB2",
"| 	c #5EC55F",
"1 	c #D9EED9",
"2 	c #90D290",
"3 	c #A3D8A3",
"4 	c #F8FCF8",
"5 	c #9FD7A0",
"6 	c #54C455",
"7 	c #7BCC7B",
"8 	c #CEE8CE",
"9 	c #7CCC7D",
"0 	c #F6FBF7",
"a 	c #9BD59C",
"b 	c #F0F7F0",
"c 	c #B3DEB3",
"d 	c #76CB77",
"e 	c #C7E6C7",
"f 	c #62C663",
"g 	c #DAEEDA",
"h 	c #AFDCAF",
"i 	c #E9F5E9",
"j 	c #A4D8A5",
"k 	c #24BE28",
"l 	c #D6ECD6",
"m 	c #FEFEFE",
"n 	c #4CC24E",
"o 	c #43C145",
"p 	c #CFE9CF",
"q 	c #7DCC7E",
"r 	c #F5FAF5",
"s 	c #96D497",
"t 	c #F0F8F1",
"u 	c #B4DEB4",
"v 	c #EEF7EE",
"w 	c #71CA72",
"x 	c #C3E4C4",
"y 	c #65C766",
"z 	c #DBEEDB",
"A 	c #CCE8CC",
"B 	c #ACDBAC",
"C 	c #E6F3E6",
"D 	c #A7D9A7",
"E 	c #F9FCF9",
"F 	c #D4EBD4",
"G 	c #D0EAD1",
"H 	c #7FCD80",
"I 	c #5CC55D",
"J 	c #F4FAF4",
"K 	c #91D291",
"L 	c #F2F8F2",
"M 	c #B5DEB5",
"N 	c #6CC86D",
"O 	c #C0E2C0",
"P 	c #6AC86A",
"Q 	c #DBEFDC",
"R 	c #E3F1E3",
"S 	c #A8DAA9",
"T 	c #28BE2C",
"U 	c #A1D7A2",
"V 	c #FCFDFC",
"W 	c #39C03B",
"X 	c #7ECC7F",
"Y 	c #80CD81",
"Z 	c #D3EBD3",
"` 	c #8AD18B",
" .	c #B6DFB6",
"..	c #AADAAA",
"+.	c #68C869",
"@.	c #BCE1BC",
"#.	c #C2E3C2",
"$.	c #DCEFDD",
"%.	c #E0F0E0",
"&.	c #93D393",
"*.	c #AADAAB",
"=.	c #FAFCFA",
"-.	c #D0E9D0",
";.	c #FBFDFB",
">.	c #30BF32",
",.	c #81CE82",
"'.	c #84CF85",
").	c #B7DFB7",
"!.	c #B8DFB8",
"~.	c #70C971",
"{.	c #DDEFDD",
"].	c #CDE8CD",
"^.	c #A3D8A4",
"/.	c #2CBF2F",
"(.	c #A2D8A2",
"_.	c #D5ECD5",
":.	c #83CE84",
"<.	c #5FC660",
"[.	c #DCEFDC",
"}.	c #72CA73",
"|.	c #DEEFDE",
"1.	c #B6DFB7",
"2.	c #AEDCAE",
"3.	c #61C762",
"4.	c #77CB78",
"5.	c #F6FBF6",
"6.	c #B9E0B9",
"7.	c #57C458",
"8.	c #DFF0DF",
"9.	c #9ED69E",
"0.	c #AFDCB0",
"a.	c #C9E7CA",
"b.	c #82CD83",
"c.	c #86D087",
"d.	c #EBF6EB",
"e.	c #F7FBF7",
"f.	c #BAE0BA",
"g.	c #8CD18D",
"h.	c #52C353",
"i.	c #9BD59B",
"j.	c #34BF36",
"k.	c #87CF88",
"l.	c #BAE0BB",
"m.	c #A6D9A6",
"n.	c #97D498",
"o.	c #C5E4C5",
"p.	c #89D08A",
"q.	c #E7F4E7",
"                                                                                                                                ",
"                                                                                                                                ",
"                                                                                                                                ",
"                                                                                                                                ",
"                                                                                                                                ",
"                                                                                                                                ",
"                                                                                                                                ",
"                                                                                                                                ",
"                                                                                                                                ",
"        . + + + + + @                                     # + + + + + + $                                   % & + + + + + *     ",
"        = + + + + + -                                   * + + + + + + + ;                                   > + + + + + ,       ",
"        ' + + + + + )                                   ! + + + + + + + ~                                   = + + + + + {       ",
"        % ] + + + + + ^                                 / + + + + + + + ( _                                 : + + + + + <       ",
"          : + + + + + @                                 # + + + + + + + + $                               % ] + + + + + [       ",
"          } + + + + + -                               * + + + + + + + + + ;                               ' + + + + + |         ",
"          1 + + + + + )                               ! + + + + 2 + + + + ~                               } + + + + + 3         ",
"          4 ] + + + + + ^                             5 + + + + > 6 + + + ( _                             7 + + + + + 8         ",
"            9 + + + + + @                             , + + + & 0 a + + + + $                           4 ] + + + + + b         ",
"            c + + + + + -                           * + + + + d   e + + + + ;                           1 + + + + + f           ",
"            g + + + + + )                           ! + + + + h   i + + + + ~                           } + + + + + j           ",
"            4 k + + + + + ^                         5 + + + + l   m n + + + o _                         9 + + + + + p           ",
"              q + + + + + @                         , + + + + r     s + + + + $                       4 ] + + + + + t           ",
"              u + + + + + -                       v + + + + w       x + + + + ;                       g + + + + + y             ",
"              z + + + + + )                       A + + + + B       C + + + + ~                       c + + + + + D             ",
"              E k + + + + + ^                     { + + + + F       m ( + + + o _                     q + + + + + G             ",
"                H + + + + + @                     I + + + + J         K + + + + $                   E k + + + + + L             ",
"                M + + + + + -                   v + + + + N           O + + + + ;                   g + + + + + P               ",
"                Q + + + + + )                   A + + + + -           R + + + + ~                   u + + + + + S               ",
"                E T + + + + + ^                 U + + + + @           V W + + + o m                 X + + + + + @               ",
"                  Y + + + + + Z                 | + + + + L             ` + + + + C               E k + + + + + ^               ",
"                   .+ + + + + ..              v + + + + +.              @.+ + + + #.              z + + + + + N                 ",
"                  $.+ + + + + N               < + + + + D               %.+ + + + &.              M + + + + + *.                ",
"                  =.T + + + + + ^             U + + + + -.              ;.>.+ + + o m             H + + + + + Z                 ",
"                    ,.+ + + + + Z             | + + + + t                 '.+ + + + C           E k + + + + + J                 ",
"                    ).+ + + + + ..          [ + + + + f                   !.+ + + + #.          Q + + + + + ~.                  ",
"                    {.+ + + + + N           ].+ + + + ^.                  $.+ + + + &.           .+ + + + + B                   ",
"                    =./.+ + + + + ^         (.+ + + + 8                   E k + + + o m         Y + + + + + _.                  ",
"                      :.+ + + + + Z         <.+ + + + [                     X + + + + C       =.T + + + + + r                   ",
"                      !.+ + + + + ..      [ + + + + I                       u + + + + #.      [.+ + + + + }.                    ",
"                      |.+ + + + + N       ].+ + + + {                       1 + + + + &.      1.+ + + + + 2.                    ",
"                      ;./.+ + + + + ^     3 + + + + !                       % & + + + o m     ,.+ + + + + l                     ",
"                        '.+ + + + + Z     3.+ + + + *                         4.+ + + + C   =.T + + + + & 5.                    ",
"                        6.+ + + + + ..  [ + + + + 7.                          h + + + + #.  $.+ + + + + d                       ",
"                        8.+ + + + + N   8 + + + + 9.                          l + + + + &.  ).+ + + + + 0.                      ",
"                        ;.>.+ + + + + ^ 3 + + + + a.                          r + + + + o m b.+ + + + + >                       ",
"                          c.+ + + + + Z 3.+ + + + d.                            ~.+ + + + %./.+ + + + & e.                      ",
"                          f.+ + + + + g.+ + + + h.                              *.+ + + + g.+ + + + + .                         ",
"                          8.+ + + + + + + + + + i.                              Z + + + + + + + + + + }                         ",
"                          ;.j.+ + + + + + + + + e                               ^ + + + + + + + + + + '                         ",
"                            k.+ + + + + + + + + i                                 +.+ + + + + + + + ] %                         ",
"                            l.+ + + + + + + + n m                                 m.+ + + + + + + + 9                           ",
"                            %.+ + + + + + + + n.                                  p + + + + + + + + c                           ",
"                            V j.+ + + + + + + o.                                  b + + + + + + + + g                           ",
"                              p.+ + + + + + + q.                                    <.+ + + + + + k 4                           ",
"                                                                                                                                ",
"                                                                                                                                ",
"                                                                                                                                ",
"                                                                                                                                ",
"                                                                                                                                ",
"                                                                                                                                ",
"                                                                                                                                ",
"                                                                                                                                ",
"                                                                                                                                ",
"                                                                                                                                "};
